<svg xmlns="http://www.w3.org/2000/svg" width="77.38" height="58.621" viewBox="0 0 77.38 58.621">
  <g id="Group_8417" data-name="Group 8417" transform="translate(-843.076 -549.313)">
    <path id="Path_2207" data-name="Path 2207" d="M847.952,569.221h10.015v2.372H845.549v-21.84h12.418v2.372H847.952v7.238h7.831v2.371h-7.831Z" transform="translate(-0.72 -0.128)" fill="#ebebeb"/>
    <path id="Path_2208" data-name="Path 2208" d="M875.575,565.006h2.464c.374,2.808,2.277,4.4,4.618,4.4,2.464,0,4.18-1.154,4.18-3.463,0-1.966-1.061-3.151-3.525-3.838l-2.776-.779a6.118,6.118,0,0,1-4.586-6.209c0-3.743,2.964-5.8,6.458-5.8,3.775,0,6.115,2.122,6.583,5.834h-2.464a3.967,3.967,0,0,0-4.118-3.463c-2.621,0-4.024,1.529-4.024,3.432,0,2,1,3.245,3.244,3.869l2.558.717c3.089.873,5.086,2.777,5.086,6.24,0,3.494-2.246,5.834-6.614,5.834C878.695,571.777,875.886,569.187,875.575,565.006Z" transform="translate(-9.458)" fill="#ebebeb"/>
    <path id="Path_2209" data-name="Path 2209" d="M907.249,552.125v-2.372H921.32v2.372h-5.834v19.468h-2.4V552.125Z" transform="translate(-18.676 -0.128)" fill="#ebebeb"/>
    <path id="Path_2210" data-name="Path 2210" d="M939.713,575.937h3.275v3.276h-3.275Z" transform="translate(-28.124 -7.748)" fill="#ebebeb"/>
    <path id="Path_2211" data-name="Path 2211" d="M848.754,620.346V603.967l-3.431,3.432-1.592-1.623,5.023-5.023h2.34v19.593h5.679v2.247h-13.7v-2.247Z" transform="translate(0 -14.97)" fill="#ebebeb"/>
    <path id="Path_2212" data-name="Path 2212" d="M873.775,606.615a6.3,6.3,0,1,1,12.6,0v1.56a6.373,6.373,0,0,1-1.248,3.776L877.3,622.62l-1.809-1.341,4.992-6.833a1.655,1.655,0,0,1-.406.031,6.325,6.325,0,0,1-6.3-6.3Zm2.34,1.56a3.963,3.963,0,1,0,7.924,0v-1.56a3.963,3.963,0,1,0-7.924,0Z" transform="translate(-8.934 -14.842)" fill="#ebebeb"/>
    <path id="Path_2213" data-name="Path 2213" d="M904.038,611.892l2.433-11.139h8.674V603H908.4l-1.5,6.8a5.023,5.023,0,0,1,3.307-1.061,6.294,6.294,0,0,1,6.146,6.3v1.56a6.3,6.3,0,1,1-12.6,0h2.34a3.964,3.964,0,1,0,7.925,0v-1.56a3.947,3.947,0,0,0-7.55-1.716Z" transform="translate(-17.66 -14.97)" fill="#ebebeb"/>
    <path id="Path_2214" data-name="Path 2214" d="M947.046,616.538a6.3,6.3,0,1,1-12.6,0v-1.56a6.371,6.371,0,0,1,1.248-3.775l7.831-10.67,1.809,1.342-4.992,6.832a1.693,1.693,0,0,1,.406-.03,6.325,6.325,0,0,1,6.3,6.3Zm-2.34-1.56a3.963,3.963,0,1,0-7.924,0v1.56a3.963,3.963,0,1,0,7.924,0Z" transform="translate(-26.59 -14.906)" fill="#ebebeb"/>
  </g>
</svg>
