<svg xmlns="http://www.w3.org/2000/svg" width="121.035" height="48.626" viewBox="0 0 121.035 48.626">
  <g id="Group_7647" data-name="Group 7647" transform="translate(-5400.12 4441.052)">
    <path id="Path_2108" data-name="Path 2108" d="M5400.12-4430.514v-1.842h12.9v1.842h-5.348v15.123h-2.2v-15.123Z" transform="translate(0 -5.848)" fill="#f2f1ed"/>
    <path id="Path_2109" data-name="Path 2109" d="M5485.692-4417.233h9.18v1.841h-11.381v-16.964h11.381v1.842h-9.18v5.623h7.178v1.841h-7.178Z" transform="translate(-56.069 -5.848)" fill="#f2f1ed"/>
    <path id="Path_2110" data-name="Path 2110" d="M5656.746-4432.356H5659v16.964h-2.116v-12.626l-3.232,8.07h-2.231l-3.231-8.07v12.626h-2.116v-16.964h2.259l4.2,10.325Z" transform="translate(-165.414 -5.848)" fill="#f2f1ed"/>
    <path id="Path_2111" data-name="Path 2111" d="M5741.082-4421.391c0,3.562-2.631,5.744-6.463,5.744s-6.463-2.182-6.463-5.744v-5.962c0-3.562,2.63-5.744,6.463-5.744s6.463,2.182,6.463,5.744Zm-2.2-5.962c0-2.569-1.888-3.9-4.261-3.9s-4.262,1.333-4.262,3.9v5.962c0,2.569,1.888,3.9,4.262,3.9s4.261-1.332,4.261-3.9Z" transform="translate(-220.614 -5.35)" fill="#f2f1ed"/>
    <path id="Path_2112" data-name="Path 2112" d="M5413.192-4340.588h-2.2c-.229-2.254-2-3.417-4.233-3.417-2.373,0-4.261,1.333-4.261,3.9v5.962c0,2.568,1.888,3.9,4.261,3.9s4.262-1.333,4.262-3.9v-1.672h-4.262v-1.842h6.463v3.515c0,3.563-2.63,5.744-6.463,5.744s-6.463-2.181-6.463-5.744v-5.962c0-3.562,2.631-5.743,6.463-5.743C5410.419-4345.847,5412.963-4343.86,5413.192-4340.588Z" transform="translate(-0.118 -64.028)" fill="#f2f1ed"/>
    <path id="Path_2113" data-name="Path 2113" d="M5485.622-4335.826v7.683h-2.2v-16.964h6.806c4.261,0,5.776,2.4,5.776,4.653,0,2.06-1.258,4.193-4.689,4.581l5.348,7.73h-2.545l-5.319-7.683Zm4.6-7.439h-4.6v5.646h4.6c2.259,0,3.546-1.212,3.546-2.835S5492.485-4343.265,5490.226-4343.265Z" transform="translate(-56.021 -64.526)" fill="#f2f1ed"/>
    <path id="Path_2114" data-name="Path 2114" d="M5576.817-4334.142c0,3.563-2.631,5.744-6.463,5.744s-6.463-2.181-6.463-5.744v-5.962c0-3.562,2.631-5.743,6.463-5.743s6.463,2.181,6.463,5.743Zm-2.2-5.962c0-2.569-1.888-3.9-4.261-3.9s-4.261,1.333-4.261,3.9v5.962c0,2.568,1.887,3.9,4.261,3.9s4.261-1.333,4.261-3.9Z" transform="translate(-110.141 -64.028)" fill="#f2f1ed"/>
    <path id="Path_2115" data-name="Path 2115" d="M5646.366-4345.107h2.2v11.463c0,2.568,1.888,3.9,4.261,3.9s4.261-1.333,4.261-3.9v-11.463h2.2v11.463c0,3.563-2.631,5.744-6.463,5.744s-6.463-2.181-6.463-5.744Z" transform="translate(-165.607 -64.526)" fill="#f2f1ed"/>
    <path id="Path_2116" data-name="Path 2116" d="M5736.715-4334.735h-4.26v6.592h-2.2v-16.964h6.462c4.633,0,6.463,2.181,6.463,5.186S5741.348-4334.735,5736.715-4334.735Zm0-8.53h-4.26v6.689h4.26c3.089,0,4.2-1.5,4.2-3.345S5739.8-4343.265,5736.715-4343.265Z" transform="translate(-222.023 -64.526)" fill="#f2f1ed"/>
    <g id="Group_1220" data-name="Group 1220" transform="translate(5451.329 -4441.052)">
      <path id="Path_2117" data-name="Path 2117" d="M5589.8-4432.365l5.86-8.687H5593.2l-4.887,7.245A2.637,2.637,0,0,1,5589.8-4432.365Z" transform="translate(-5577.894 4441.052)" fill="#e55e20"/>
      <path id="Path_2118" data-name="Path 2118" d="M5563.848-4433.807l-4.887-7.245H5556.5l5.858,8.687A2.643,2.643,0,0,1,5563.848-4433.807Z" transform="translate(-5556.498 4441.052)" fill="#e55e20"/>
      <path id="Path_2119" data-name="Path 2119" d="M5588.3-4396.853l4.886,7.245h2.463l-5.857-8.685A2.64,2.64,0,0,1,5588.3-4396.853Z" transform="translate(-5577.888 4412.295)" fill="#e55e20"/>
      <path id="Path_2120" data-name="Path 2120" d="M5562.364-4398.293l-5.858,8.685h2.463l4.887-7.245A2.641,2.641,0,0,1,5562.364-4398.293Z" transform="translate(-5556.502 4412.295)" fill="#e55e20"/>
    </g>
  </g>
</svg>
