<svg xmlns="http://www.w3.org/2000/svg" xmlns:xlink="http://www.w3.org/1999/xlink" width="34.041" height="32.687" viewBox="0 0 34.041 32.687">
  <defs>
    <clipPath id="clip-path">
      <path id="Path_778" data-name="Path 778" d="M0-121.994H34.041v-32.687H0Z" transform="translate(0 154.681)" fill="#ebebeb"/>
    </clipPath>
  </defs>
  <g id="Group_870" data-name="Group 870" clip-path="url(#clip-path)">
    <g id="Group_863" data-name="Group 863" transform="translate(14.109 0)">
      <path id="Path_771" data-name="Path 771" d="M-14.022-49.648-11.945-62.7l-.014,0a17.211,17.211,0,0,0-2.908-.248,17.208,17.208,0,0,0-2.909.248h0l2.057,13.054a20.05,20.05,0,0,1,.164,3.191v16.194h1.369V-46.457a19.75,19.75,0,0,1,.167-3.191" transform="translate(17.779 62.95)" fill="#ebebeb"/>
    </g>
    <g id="Group_864" data-name="Group 864" transform="translate(5.769 1.195)">
      <path id="Path_772" data-name="Path 772" d="M-34.742-39.468l-.3-.744-4.031-9.831h0l-.016.008-.134.053a17.052,17.052,0,0,0-4.82,2.992c.027.034,6.743,7.743,6.743,7.743a8.115,8.115,0,0,1,1.842,5.288v15.407H-34.1V-34.069c0-4.121-.646-5.4-.646-5.4" transform="translate(44.051 50.043)" fill="#ebebeb"/>
    </g>
    <g id="Group_865" data-name="Group 865" transform="translate(0.754 6.812)">
      <path id="Path_773" data-name="Path 773" d="M-43.778-24.757a2.953,2.953,0,0,0-.551-.522l-8.207-5.878-.324-.232-.007.01c-.109.145-.214.291-.319.44a16.986,16.986,0,0,0-2.322,4.733c.148.046,10.543,3.3,10.585,3.312.115.044,1.038.319,1.038,1.915V-5.515h1.368V-20.877a5.79,5.79,0,0,0-1.261-3.88" transform="translate(55.508 31.39)" fill="#ebebeb"/>
    </g>
    <g id="Group_866" data-name="Group 866" transform="translate(0 15.456)">
      <path id="Path_774" data-name="Path 774" d="M-38.348-1.6c-.3-.019-9.567-.4-10.2-.428v0c-.046.515-.071,1.036-.071,1.561,0,.129,0,.255,0,.381a16.926,16.926,0,0,0,.527,3.852.027.027,0,0,0,0,.009c.018-.006,8.036-2.518,8.417-2.64a4.27,4.27,0,0,1,.7-.186.638.638,0,0,1,.491.1.886.886,0,0,1,.264.691V15.2h1.368V.236s.07-1.736-1.493-1.834" transform="translate(48.623 2.026)" fill="#ebebeb"/>
    </g>
    <g id="Group_867" data-name="Group 867" transform="translate(18.319 1.196)">
      <path id="Path_775" data-name="Path 775" d="M-11.979-40.293l6.743-7.742a17,17,0,0,0-4.82-2.991c-.043-.019-.089-.038-.134-.055a.038.038,0,0,0-.017-.007h0l-4.333,10.574s-.646,1.277-.646,5.4V-19.6h1.369V-35.005a8.106,8.106,0,0,1,1.841-5.288" transform="translate(15.189 51.089)" fill="#ebebeb"/>
    </g>
    <g id="Group_868" data-name="Group 868" transform="translate(20.297 6.812)">
      <path id="Path_776" data-name="Path 776" d="M-8.977-31.7c.042-.015,10.438-3.264,10.584-3.311A16.963,16.963,0,0,0-.714-39.746c-.1-.15-.209-.3-.318-.44l-.007-.009-8.53,6.11a2.986,2.986,0,0,0-.553.522,5.79,5.79,0,0,0-1.26,3.88v15.362h1.367V-29.786c0-1.6.923-1.871,1.038-1.915" transform="translate(11.382 40.196)" fill="#ebebeb"/>
    </g>
    <g id="Group_869" data-name="Group 869" transform="translate(22.275 15.457)">
      <path id="Path_777" data-name="Path 777" d="M-43.646-.006s0,0,0,0c-.636.023-9.9.408-10.2.428-1.563.1-1.49,1.834-1.49,1.834V17.223h1.364V3.765a.89.89,0,0,1,.265-.691.644.644,0,0,1,.492-.107,4.008,4.008,0,0,1,.7.189c.38.125,8.3,2.623,8.412,2.656,0-.008,0-.016,0-.025a16.818,16.818,0,0,0,.525-3.851c0-.126.006-.253.006-.382,0-.525-.025-1.046-.071-1.561" transform="translate(55.34 0.007)" fill="#ebebeb"/>
    </g>
  </g>
</svg>
